<?xml version="1.0" encoding="UTF-8" standalone="no"?>
<!-- Created with Inkscape (http://www.inkscape.org/) -->

<svg
   xmlns:dc="http://purl.org/dc/elements/1.1/"
   xmlns:cc="http://creativecommons.org/ns#"
   xmlns:rdf="http://www.w3.org/1999/02/22-rdf-syntax-ns#"
   xmlns:svg="http://www.w3.org/2000/svg"
   xmlns="http://www.w3.org/2000/svg"
   xmlns:sodipodi="http://sodipodi.sourceforge.net/DTD/sodipodi-0.dtd"
   xmlns:inkscape="http://www.inkscape.org/namespaces/inkscape"
   width="120mm"
   height="35mm"
   viewBox="0 0 120 35"
   version="1.1"
   id="svg898"
   sodipodi:docname="logo-vector-blanco.svg"
   inkscape:version="0.92.4 (5da689c313, 2019-01-14)">
  <defs
     id="defs892" />
  <sodipodi:namedview
     id="base"
     pagecolor="#ffffff"
     bordercolor="#666666"
     borderopacity="1.0"
     inkscape:pageopacity="0.0"
     inkscape:pageshadow="2"
     inkscape:zoom="2.8"
     inkscape:cx="175.10997"
     inkscape:cy="76.379084"
     inkscape:document-units="mm"
     inkscape:current-layer="layer1"
     showgrid="false"
     inkscape:window-width="1920"
     inkscape:window-height="1017"
     inkscape:window-x="-8"
     inkscape:window-y="-8"
     inkscape:window-maximized="1" />
  <metadata
     id="metadata895">
    <rdf:RDF>
      <cc:Work
         rdf:about="">
        <dc:format>image/svg+xml</dc:format>
        <dc:type
           rdf:resource="http://purl.org/dc/dcmitype/StillImage" />
        <dc:title></dc:title>
      </cc:Work>
    </rdf:RDF>
  </metadata>
  <g
     inkscape:label="Capa 1"
     inkscape:groupmode="layer"
     id="layer1"
     transform="translate(0,-262)">
    <g
       aria-label="TriperBags"
       style="font-style:normal;font-variant:normal;font-weight:bold;font-stretch:normal;font-size:16.93333244px;line-height:1.25;font-family:MicroExtendFLF;-inkscape-font-specification:'MicroExtendFLF Bold';letter-spacing:0px;word-spacing:0px;fill:#000000;fill-opacity:1;stroke:none;stroke-width:0.26458332"
       id="text5945-1">
      <path
         d="m 23.127531,276.19485 h -2.912533 v -1.3208 h -1.083734 v 7.62 h 1.185334 v 2.77707 h -7.112 v -2.77707 h 1.185333 v -7.62 h -1.083733 v 1.3208 h -2.912533 v -4.09786 h 12.733866 z"
         style="fill:#f9f9f9"
         id="path2099" />
      <path
         d="m 30.888024,275.61912 q 0.338666,0 0.643466,0.0677 0.3048,0.0677 0.508,0.16934 v 3.23426 q -0.694266,-0.28786 -1.490133,-0.28786 -1.0668,0 -1.642533,0.5588 -0.575734,0.5588 -0.575734,1.65946 v 1.4732 h 1.524 v 2.77707 h -6.163733 v -2.77707 h 0.745067 v -3.8608 h -0.745067 v -2.77706 h 4.639733 v 1.23613 q 0.474134,-0.7112 1.083734,-1.08373 0.6096,-0.38947 1.4732,-0.38947 z"
         style="fill:#f9f9f9"
         id="path2101" />
      <path
         d="m 33.399978,274.92485 v -2.82786 h 3.4544 v 2.82786 z m -0.8128,10.34627 v -2.77707 h 0.745067 v -3.8608 h -0.745067 v -2.77706 h 4.639733 v 6.63786 h 0.745067 v 2.77707 z"
         style="fill:#f9f9f9"
         id="path2103" />
      <path
         d="m 38.373351,286.25325 h 0.745067 v -7.62 h -0.745067 v -2.77706 h 4.639734 v 1.15146 q 0.423333,-0.54186 1.083733,-0.9652 0.677333,-0.42333 1.540933,-0.42333 1.7272,0 2.5908,1.28693 0.880533,1.28694 0.880533,3.6576 0,2.37067 -0.880533,3.6576 -0.8636,1.28693 -2.5908,1.28693 -0.8636,0 -1.540933,-0.42333 -0.6604,-0.42333 -1.083733,-0.9652 v 2.1336 h 1.1684 v 2.77707 h -5.808134 z m 5.621867,-3.7592 q 0.491066,0 0.728133,-0.254 0.254,-0.27093 0.254,-0.82973 v -1.69333 q 0,-0.5588 -0.254,-0.8128 -0.237067,-0.27094 -0.728133,-0.27094 -0.491067,0 -0.745067,0.27094 -0.237066,0.254 -0.237066,0.8128 v 1.69333 q 0,0.5588 0.237066,0.82973 0.254,0.254 0.745067,0.254 z"
         style="fill:#f9f9f9"
         id="path2105" />
      <path
         d="m 54.632791,285.50818 q -2.404534,0 -3.7592,-1.25306 -1.354667,-1.27 -1.354667,-3.69147 0,-2.42146 1.354667,-3.67453 1.354666,-1.27 3.7592,-1.27 2.387599,0 3.437466,1.25307 1.0668,1.23613 1.0668,3.08186 v 1.2192 h -5.4864 v 0.1016 q 0,0.62654 0.372534,0.93133 0.372533,0.28787 1.236133,0.28787 1.032933,0 1.964266,-0.1524 0.931334,-0.1524 1.6256,-0.38946 v 2.70933 q -0.592666,0.32173 -1.744133,0.59266 -1.134533,0.254 -2.472266,0.254 z m 0.982133,-6.19759 v -0.2032 q 0,-0.57574 -0.254,-0.82974 -0.237067,-0.254 -0.728133,-0.254 -0.491067,0 -0.745067,0.27094 -0.237067,0.254 -0.237067,0.8128 v 0.2032 z"
         style="fill:#f9f9f9"
         id="path2107" />
      <path
         d="m 66.871355,275.61912 q 0.338667,0 0.643467,0.0677 0.3048,0.0677 0.508,0.16934 v 3.23426 q -0.694267,-0.28786 -1.490133,-0.28786 -1.0668,0 -1.642534,0.5588 -0.575733,0.5588 -0.575733,1.65946 v 1.4732 h 1.524 v 2.77707 h -6.163733 v -2.77707 h 0.745067 v -3.8608 h -0.745067 v -2.77706 h 4.639733 v 1.23613 q 0.474133,-0.7112 1.083733,-1.08373 0.6096,-0.38947 1.4732,-0.38947 z"
         style="fill:#f9f9f9"
         id="path2109" />
      <path
         d="m 68.604377,282.49405 h 0.846666 v -7.62 h -0.846666 v -2.77706 h 7.772399 q 2.116667,0 3.302,0.8636 1.185333,0.8636 1.185333,2.47226 0,0.99907 -0.474133,1.69334 -0.474133,0.67733 -1.1176,1.03293 -0.626533,0.33867 -1.2192,0.4572 v 0.16933 q 1.202267,0.11854 2.167467,0.762 0.9652,0.64347 0.9652,2.30294 0,1.77799 -1.337734,2.60773 -1.337733,0.8128 -3.471333,0.8128 h -7.772399 z m 6.502399,-4.84293 q 0.491067,0 0.728133,-0.254 0.254,-0.27093 0.254,-0.82973 v -0.6096 q 0,-0.5588 -0.254,-0.8128 -0.237066,-0.27094 -0.728133,-0.27094 h -0.9144 v 2.77707 z m 0.118534,4.84293 q 0.491066,0 0.728133,-0.254 0.254,-0.27093 0.254,-0.82973 v -0.74507 q 0,-0.5588 -0.254,-0.8128 -0.237067,-0.27093 -0.728133,-0.27093 h -1.032934 v 2.91253 z"
         style="font-style:normal;font-variant:normal;font-weight:bold;font-stretch:normal;font-family:'Alfa Slab One';-inkscape-font-specification:'Alfa Slab One Bold';fill:#ff0000;stroke-width:0.26458332"
         id="path2111" />
      <path
         d="m 91.57259,282.49405 v 2.77707 h -4.470399 v -1.15147 q -0.372534,0.54187 -1.049867,0.9652 -0.6604,0.42333 -1.6256,0.42333 -1.27,0 -1.998133,-0.67733 -0.728133,-0.67733 -0.728133,-1.91347 0,-3.20039 5.435599,-3.28506 -0.0508,-0.57573 -0.440266,-0.77893 -0.389467,-0.22014 -1.3208,-0.22014 -0.762,0 -1.642534,0.16934 -0.8636,0.1524 -1.591733,0.42333 v -3.11573 q 0.897467,-0.22014 1.947333,-0.3556 1.049867,-0.13547 2.048934,-0.13547 2.523066,0 3.606799,0.9144 1.083734,0.9144 1.083734,2.82787 v 3.13266 z m -4.470399,-1.18533 q -0.762,0 -1.185334,0.2032 -0.4064,0.2032 -0.4064,0.67733 0,0.28787 0.169334,0.47413 0.186266,0.16934 0.508,0.16934 0.440266,0 0.677333,-0.37254 0.237067,-0.37253 0.237067,-1.04986 z"
         style="font-style:normal;font-variant:normal;font-weight:bold;font-stretch:normal;font-family:'Alfa Slab One';-inkscape-font-specification:'Alfa Slab One Bold';fill:#ff0000;stroke-width:0.26458332"
         id="path2113" />
      <path
         d="m 97.079893,289.26738 q -1.2192,0 -2.3368,-0.16933 -1.100667,-0.16933 -1.710267,-0.38947 v -2.77706 q 1.794933,0.32173 3.217333,0.32173 0.9652,0 1.388534,-0.3048 0.440266,-0.28787 0.440266,-1.10067 v -0.72813 q -0.423333,0.54187 -1.100666,0.9652 -0.6604,0.42333 -1.524,0.42333 -1.7272,0 -2.607733,-1.28693 -0.8636,-1.28693 -0.8636,-3.6576 0,-2.37066 0.8636,-3.6576 0.880533,-1.28693 2.607733,-1.28693 0.8636,0 1.524,0.42333 0.677333,0.42334 1.100666,0.9652 v -1.15146 h 4.639731 v 2.77706 h -0.74506 v 5.96053 q 0,2.45534 -1.2192,3.556 -1.219204,1.1176 -3.674537,1.1176 z m 0.01693,-6.77333 q 0.491067,0 0.728133,-0.254 0.254,-0.27093 0.254,-0.82973 v -1.69333 q 0,-0.5588 -0.254,-0.8128 -0.237066,-0.27094 -0.728133,-0.27094 -0.491067,0 -0.745067,0.27094 -0.237066,0.254 -0.237066,0.8128 v 1.69333 q 0,0.5588 0.237066,0.82973 0.254,0.254 0.745067,0.254 z"
         style="font-style:normal;font-variant:normal;font-weight:bold;font-stretch:normal;font-family:'Alfa Slab One';-inkscape-font-specification:'Alfa Slab One Bold';fill:#ff0000;stroke-width:0.26458332"
         id="path2115" />
      <path
         d="m 107.31266,285.50818 q -2.1336,0 -4.1148,-0.67733 v -2.50613 h 2.7432 v 0.16933 q 0,0.8128 1.03293,0.8128 0.9144,0 0.9144,-0.62653 0,-0.33867 -0.27093,-0.508 -0.254,-0.16933 -0.9144,-0.28787 l -0.84667,-0.1524 q -2.65853,-0.47413 -2.65853,-3.01413 0,-1.4732 1.1176,-2.286 1.1176,-0.8128 3.01413,-0.8128 2.11667,0 3.57293,0.7112 v 2.35373 h -2.57386 v -0.16933 q 0,-0.33867 -0.23707,-0.508 -0.22013,-0.18627 -0.6604,-0.18627 -0.84667,0 -0.84667,0.54187 0,0.28787 0.23707,0.44027 0.23707,0.1524 0.8636,0.28786 l 0.9652,0.18627 q 1.50707,0.28787 2.15053,1.0668 0.64347,0.77893 0.64347,1.99813 0,1.54093 -1.08373,2.35373 -1.0668,0.8128 -3.048,0.8128 z"
         style="font-style:normal;font-variant:normal;font-weight:bold;font-stretch:normal;font-family:'Alfa Slab One';-inkscape-font-specification:'Alfa Slab One Bold';fill:#ff0000;stroke-width:0.26458332"
         id="path2117" />
    </g>
  </g>
</svg>
